<?xml version="1.0" encoding="utf-8"?>
<svg width="3091px" height="815px" viewBox="0 0 3091 815" version="1.1" xmlns:xlink="http://www.w3.org/1999/xlink" xmlns="http://www.w3.org/2000/svg">
  <defs>
    <filter id="filter_1">
      <feColorMatrix in="SourceGraphic" type="matrix" values="0 0 0 0 0.827451 0 0 0 0 0.827451 0 0 0 0 0.827451 0 0 0 1 0" color-interpolation-filters="sRGB" />
    </filter>
    <path d="M0 0L815 0L815 815L0 815L0 0Z" id="path_1" />
    <clipPath id="mask_1">
      <use xlink:href="#path_1" />
    </clipPath>
  </defs>
  <g id="zoocityboy_light-2" filter="url(#filter_1)">
    <g id="infinity" transform="translate(238 0)">
      <path d="M0 0L815 0L815 815L0 815L0 0Z" id="Background" fill="#FFFFFF" fill-opacity="0" fill-rule="evenodd" stroke="none" />
      <g clip-path="url(#mask_1)">
        <path d="M229.219 229.219C131.025 229.219 50.9375 309.306 50.9375 407.5C50.9375 505.793 130.925 585.781 229.219 585.781C303.834 585.781 349.399 544.792 384.419 494.253C373.973 477.44 365.218 460.825 356.563 444.907C325.324 496.541 290.304 534.844 229.219 534.844C158.981 534.844 101.875 477.738 101.875 407.5C101.875 336.864 158.583 280.156 229.219 280.156C270.407 280.156 296.572 294.88 320.747 319.951C344.923 345.022 365.317 381.235 386.011 419.438C406.704 457.642 427.696 497.834 458.438 530.068C489.179 562.302 531.561 585.781 585.781 585.781C683.975 585.781 764.062 505.694 764.062 407.5C764.062 309.207 684.075 229.219 585.781 229.219C511.564 229.219 465.7 268.914 430.581 318.359C441.027 334.874 450.578 351.091 459.233 366.909C490.273 316.768 524.895 280.156 585.781 280.156C656.019 280.156 713.125 337.262 713.125 407.5C713.125 478.136 656.417 534.844 585.781 534.844C545.29 534.844 519.821 520.12 495.845 495.049C471.868 469.978 451.374 433.765 430.581 395.562C409.788 357.358 388.398 317.166 357.358 284.932C326.318 252.698 283.937 229.219 229.219 229.219L229.219 229.219Z" id="Shape" fill="#000000" fill-rule="evenodd" stroke="none" />
      </g>
    </g>
    <g id="Z-------CITYBOY" transform="translate(0 108.559326)">
      <path d="M1337.89 409.096C1315.19 456.703 1267.09 484.291 1201.66 484.291C1102.05 484.291 1039.79 414.467 1039.79 302.162C1039.79 190.59 1102.78 120.277 1201.17 120.277C1265.87 120.277 1317.63 151.771 1339.6 203.773C1343.02 210.854 1344.73 218.178 1344.73 224.77C1344.73 239.418 1334.96 248.939 1320.31 248.939C1307.37 248.939 1298.83 242.592 1292.72 228.432C1276.37 189.125 1241.7 168.129 1201.17 168.129C1137.21 168.129 1095.7 220.619 1095.7 302.162C1095.7 384.438 1136.72 436.439 1201.42 436.439C1244.38 436.439 1277.34 418.129 1293.7 380.043C1299.56 367.104 1306.64 361.732 1318.6 361.732C1333.5 361.732 1343.75 371.986 1343.75 386.391C1343.75 393.959 1341.8 401.039 1337.89 409.096ZM2590.58 484.291C2691.89 484.291 2755.62 414.467 2755.62 302.406C2755.62 190.346 2691.89 120.277 2590.58 120.277C2489.01 120.277 2425.54 190.346 2425.54 302.406C2425.54 414.467 2489.01 484.291 2590.58 484.291ZM1427.49 482.338C1444.34 482.338 1454.83 471.596 1454.83 454.018L1454.83 150.551C1454.83 132.973 1444.34 122.23 1427.49 122.23C1410.4 122.23 1400.15 132.973 1400.15 150.551L1400.15 454.018C1400.15 471.596 1410.4 482.338 1427.49 482.338ZM1939.21 482.338C1956.3 482.338 1966.55 471.596 1966.55 454.018L1966.55 334.145L2078.37 164.955C2082.52 158.607 2083.98 152.992 2083.98 146.889C2083.98 132.729 2072.27 122.23 2057.13 122.23C2046.39 122.23 2039.55 126.625 2032.96 137.611L1940.43 281.654L1938.72 281.654L1846.19 137.611C1839.36 126.381 1833.01 122.23 1821.78 122.23C1806.4 122.23 1794.68 132.729 1794.68 147.133C1794.68 153.236 1796.14 158.852 1800.29 164.955L1911.87 334.145L1911.87 454.018C1911.87 471.596 1922.36 482.338 1939.21 482.338ZM2960.21 454.018C2960.21 471.596 2949.95 482.338 2932.86 482.338C2916.02 482.338 2905.52 471.596 2905.52 454.018L2905.52 334.145L2793.95 164.955C2789.79 158.852 2788.33 153.236 2788.33 147.133C2788.33 132.729 2800.05 122.23 2815.43 122.23C2826.66 122.23 2833.01 126.381 2839.84 137.611L2932.37 281.654L2934.08 281.654L3026.61 137.611C3033.2 126.625 3040.04 122.23 3050.78 122.23C3065.92 122.23 3077.64 132.729 3077.64 146.889C3077.64 152.992 3076.17 158.607 3072.02 164.955L2960.21 334.145L2960.21 454.018ZM266.113 478.432L51.2695 478.432C34.4238 478.432 23.1934 467.934 23.1934 452.064C23.1934 444.008 25.6348 437.66 31.9824 428.871L216.064 175.209L216.064 173.5L50.5371 173.5C35.4004 173.5 25.1465 164.223 25.1465 149.818C25.1465 135.414 35.4004 126.137 50.5371 126.137L254.395 126.137C271.973 126.137 283.203 136.879 283.203 153.236C283.203 161.537 280.518 166.908 274.17 175.941L91.0645 429.359L91.0645 431.068L266.113 431.068C281.494 431.068 291.748 440.346 291.748 454.75C291.748 469.154 281.25 478.432 266.113 478.432ZM1661.87 454.018C1661.87 471.596 1651.37 482.338 1634.52 482.338C1617.43 482.338 1607.18 471.596 1607.18 454.018L1607.18 173.5L1520.75 173.5C1505.62 173.5 1495.36 164.223 1495.36 149.818C1495.36 135.414 1505.62 126.137 1520.75 126.137L1748.05 126.137C1763.18 126.137 1773.44 135.414 1773.44 149.818C1773.44 164.223 1763.18 173.5 1748.05 173.5L1661.87 173.5L1661.87 454.018ZM2271 478.432L2156.98 478.432C2139.89 478.432 2129.64 467.689 2129.64 450.111L2129.64 154.457C2129.64 136.879 2139.89 126.137 2156.98 126.137L2270.26 126.137C2332.76 126.137 2373.78 160.805 2373.78 214.027C2373.78 251.381 2346.19 284.828 2311.04 290.688L2311.04 292.641C2358.89 298.012 2391.11 331.947 2391.11 378.822C2391.11 440.834 2345.95 478.432 2271 478.432ZM2590.58 436.195C2523.68 436.195 2481.45 384.438 2481.45 302.406C2481.45 220.131 2523.68 168.373 2590.58 168.373C2657.47 168.373 2699.46 220.131 2699.46 302.406C2699.46 384.438 2657.47 436.195 2590.58 436.195ZM2184.33 170.814L2184.33 276.039L2245.61 276.039C2292.97 276.039 2319.09 256.508 2319.09 221.596C2319.09 188.881 2296.63 170.814 2257.08 170.814L2184.33 170.814ZM2184.33 317.787L2184.33 433.754L2259.77 433.754C2309.08 433.754 2335.21 413.49 2335.21 375.404C2335.21 337.318 2308.35 317.787 2256.59 317.787L2184.33 317.787Z" />
    </g>
  </g>
</svg>